<svg width="233" height="40" viewBox="0 0 233 40" fill="none" xmlns="http://www.w3.org/2000/svg">
<path d="M52.6885 11.1742H56.4455V28.2536H52.6885V11.1108V11.1742ZM60.676 11.1742H68.4741C70.6209 11.1742 72.2626 11.7457 73.4308 12.8885C73.9221 13.4138 74.3038 14.0328 74.5532 14.709C74.8027 15.3851 74.9148 16.1046 74.8831 16.825V16.8568C74.8831 18.2536 74.5673 19.3965 73.8728 20.2536C73.1914 21.1201 72.2843 21.7795 71.2524 22.1584L75.3882 28.2854H71.0314L67.3691 22.7933H64.4645V28.2854H60.7391V11.1108L60.676 11.1742ZM68.2531 19.46C69.1687 19.46 69.8632 19.2695 70.3684 18.825C70.614 18.6023 70.8068 18.3269 70.9324 18.0192C71.0581 17.7115 71.1135 17.3793 71.0945 17.0473V17.0155C71.0945 16.1901 70.8419 15.5869 70.3368 15.1742C69.8001 14.7615 69.0739 14.5393 68.1584 14.5393H64.433V19.46H68.2215H68.2531ZM86.5644 28.5711C84.1462 28.5986 81.8127 27.676 80.0607 25.9996C79.2371 25.1927 78.5877 24.2237 78.1531 23.1531C77.7186 22.0826 77.5082 20.9334 77.535 19.7774V19.6822C77.5136 17.9296 78.0211 16.2117 78.9905 14.7551C79.96 13.2985 81.3459 12.1718 82.9653 11.5235C84.0703 11.079 85.27 10.825 86.596 10.825C89.0078 10.8143 91.329 11.7479 93.0681 13.4282C93.8917 14.2351 94.5411 15.2041 94.9757 16.2747C95.4102 17.3453 95.6207 18.4944 95.5938 19.6504V19.6822C95.6153 21.4347 95.1078 23.1527 94.1383 24.6092C93.1688 26.0658 91.7829 27.1926 90.1635 27.8409C89.0234 28.3204 87.8002 28.5686 86.5644 28.5711ZM86.5644 25.079C87.2533 25.0885 87.9368 24.9553 88.5723 24.6877C89.2078 24.42 89.7817 24.0237 90.2582 23.5235C91.1926 22.5045 91.7013 21.1632 91.679 19.7774V19.6822C91.7092 18.2702 91.1878 16.9025 90.2267 15.8727C89.7505 15.3696 89.1774 14.9694 88.5423 14.6965C87.9072 14.4236 87.2235 14.2837 86.5328 14.2854C85.8472 14.2862 85.169 14.4273 84.5393 14.7002C83.9097 14.9731 83.3419 15.372 82.8706 15.8727C81.9171 16.8946 81.3963 18.2493 81.4183 19.6504V19.6822C81.4167 21.089 81.9342 22.4464 82.8706 23.4917C83.3441 23.9679 83.8809 24.3488 84.5123 24.6346C85.1437 24.952 85.8383 25.079 86.596 25.079H86.5644ZM98.9403 11.1742H102.413L110.369 21.7139V11.1742H114.031V28.2536H110.874L102.603 17.3647V28.2536H98.9088V11.1108L98.9403 11.1742Z" fill="white"/>
<path d="M117.915 11.1748H124.292C125.24 11.1748 126.124 11.3018 126.913 11.5558C127.702 11.8097 128.365 12.1589 128.933 12.6034C129.49 13.1067 129.933 13.7242 130.233 14.4141C130.532 15.1041 130.681 15.8506 130.67 16.6034V16.6351C130.67 17.5875 130.48 18.3812 130.133 19.0796C129.786 19.778 129.281 20.3494 128.681 20.8256C128.047 21.3053 127.33 21.6607 126.566 21.8732C125.745 22.1272 124.892 22.2224 123.977 22.2224H119.872V28.2542H117.915V11.2066V11.1748ZM124.071 20.5082C124.766 20.5082 125.397 20.4129 125.966 20.2224C126.504 20.0654 127.007 19.8068 127.45 19.4605C127.853 19.1321 128.176 18.7154 128.395 18.2423C128.614 17.7692 128.722 17.2521 128.712 16.7304V16.6669C128.712 15.4605 128.334 14.5082 127.481 13.905C126.629 13.3018 125.524 12.9526 124.166 12.9526H119.841V20.5082H124.071ZM134.174 11.1748H140.078C141.404 11.1748 142.604 11.3653 143.74 11.8097C144.845 12.2542 145.792 12.8574 146.582 13.6193C147.402 14.3888 148.051 15.324 148.486 16.3635C148.921 17.4031 149.133 18.5234 149.107 19.651V19.7145C149.124 20.8675 148.909 22.012 148.476 23.0796C148.043 24.1136 147.397 25.0439 146.582 25.8097C145.759 26.5908 144.794 27.2052 143.74 27.6193C142.604 28.0637 141.404 28.2542 140.078 28.2542H134.174V11.2066V11.1748ZM140.078 26.4764C141.151 26.4764 142.099 26.3177 142.983 25.9685C143.801 25.6636 144.547 25.1896 145.172 24.5773C145.798 23.9649 146.289 23.2276 146.613 22.4129C146.949 21.5757 147.121 20.6809 147.118 19.778V19.6828C147.118 18.7304 146.961 17.8732 146.613 17.0478C146.287 16.2264 145.797 15.4812 145.172 14.8585C144.548 14.2359 143.802 13.7492 142.983 13.4288C142.055 13.0761 141.069 12.9037 140.078 12.9209H136.069V26.4447H140.078V26.4764ZM153.18 11.1748H165.398V12.9526H155.106V19.0478H164.325V20.7939H155.074V28.2542H153.18V11.1113V11.1748Z" fill="#E01A59"/>
<path d="M174.247 28H175.556V20.367H178.327V19.245H175.539V18.531C175.539 17.29 176.049 16.661 177.069 16.661C177.528 16.661 177.868 16.746 178.344 16.882V15.743C177.919 15.59 177.511 15.522 176.899 15.522C176.1 15.522 175.471 15.743 175.012 16.202C174.502 16.712 174.247 17.46 174.247 18.463V19.228H173.04V20.367H174.247V28ZM183.205 28.204C185.857 28.204 187.812 26.113 187.812 23.614V23.58C187.812 21.098 185.891 19.024 183.239 19.024C180.57 19.024 178.649 21.115 178.649 23.614V23.648C178.649 26.13 180.57 28.204 183.205 28.204ZM183.239 27.031C181.386 27.031 179.992 25.501 179.992 23.614V23.58C179.992 21.727 181.301 20.18 183.205 20.18C185.058 20.18 186.469 21.727 186.469 23.614V23.648C186.469 25.484 185.143 27.031 183.239 27.031ZM189.545 28H190.854V24.498C190.854 21.846 192.418 20.469 194.339 20.469H194.441V19.058C192.775 19.007 191.5 20.044 190.854 21.506V19.211H189.545V28ZM205.918 28.204C208.06 28.204 209.454 27.371 210.678 26.113L209.794 25.246C208.655 26.334 207.584 26.963 205.952 26.963C203.317 26.963 201.345 24.804 201.345 22.05V22.016C201.345 19.279 203.317 17.137 205.952 17.137C207.584 17.137 208.672 17.817 209.692 18.769L210.61 17.783C209.437 16.644 208.128 15.896 205.969 15.896C202.484 15.896 199.951 18.684 199.951 22.05V22.084C199.951 25.501 202.484 28.204 205.918 28.204ZM215.449 26.13H216.724V22.628H220.243V21.404H216.724V17.902H215.449V21.404H211.93V22.628H215.449V26.13ZM225.437 26.13H226.712V22.628H230.231V21.404H226.712V17.902H225.437V21.404H221.918V22.628H225.437V26.13Z" fill="white"/>
<path d="M47.2931 9.11133L45.462 15.9367H29.2344L31.0655 9.11133H47.2931Z" fill="#FDA509"/>
<path d="M18.0272 24.032L16.2276 30.7939H0L1.83113 24.0002L18.0272 24.032Z" fill="#63C1A0"/>
<path d="M36.2748 15.9365H29.2344L33.4965 0H40.5053L36.2748 15.9365Z" fill="#89D3DF"/>
<path d="M13.8008 40H6.79199L11.0225 24.0317H18.0314L13.8008 40Z" fill="#E01A59"/>
<path d="M22.0057 9.11133L20.1746 15.9367H3.97852L5.77808 9.11133H22.0057Z" fill="#FDA509"/>
<path d="M20.1709 15.9365H13.1621L17.4242 0H24.4646L20.1709 15.9365Z" fill="#E01A59"/>
<path d="M29.833 40H22.8242L27.0548 24.0317H34.0952L29.833 40Z" fill="#89D3DF"/>
<path d="M43.3221 24.0315L41.5225 30.7934H25.2949L27.0629 23.9998L43.3221 24.0315Z" fill="#63C1A0"/>
<path d="M32.2706 30.7939H9.22363L15.0012 9.11133H38.0797L32.2706 30.7939Z" fill="#331433"/>
<path d="M20.3664 19.062V19.0452C20.3664 18.7429 20.3135 18.4686 20.2078 18.2223C20.1076 17.9704 19.96 17.7549 19.7652 17.5758C19.5759 17.3966 19.3421 17.2595 19.0637 17.1643C18.791 17.0636 18.4792 17.0132 18.1285 17.0132H15.7402V22.8909H17.0262V21.1276H18.0032C18.3317 21.1276 18.6379 21.0856 18.9218 21.0016C19.2113 20.9121 19.4618 20.7805 19.6733 20.607C19.8904 20.4335 20.0602 20.2179 20.1827 19.9604C20.3052 19.7029 20.3664 19.4035 20.3664 19.062ZM19.0637 19.0872C19.0637 19.3391 18.9747 19.5518 18.7965 19.7253C18.6184 19.8933 18.3679 19.9772 18.045 19.9772H17.0262V18.1803H18.0199C18.3428 18.1803 18.5961 18.2559 18.7798 18.407C18.9691 18.5582 19.0637 18.7793 19.0637 19.0704V19.0872Z" fill="white"/>
<path d="M26.7042 19.952V19.9353C26.7042 19.521 26.629 19.1376 26.4787 18.7849C26.3284 18.4266 26.1141 18.116 25.8357 17.8529C25.563 17.5898 25.2345 17.3854 24.8504 17.2399C24.4718 17.0888 24.0543 17.0132 23.5978 17.0132H21.3181V22.8909H23.5978C24.0543 22.8909 24.4718 22.8153 24.8504 22.6642C25.2345 22.5131 25.563 22.3059 25.8357 22.0428C26.1141 21.7797 26.3284 21.4691 26.4787 21.1108C26.629 20.7525 26.7042 20.3663 26.7042 19.952ZM25.3598 19.9688C25.3598 20.2319 25.3152 20.4698 25.2262 20.6826C25.1427 20.8953 25.023 21.08 24.8671 21.2367C24.7168 21.3935 24.5331 21.5138 24.316 21.5978C24.0988 21.6818 23.8595 21.7238 23.5978 21.7238H22.6041V18.1803H23.5978C23.8595 18.1803 24.0988 18.2251 24.316 18.3147C24.5331 18.3986 24.7168 18.519 24.8671 18.6757C25.023 18.8325 25.1427 19.02 25.2262 19.2383C25.3152 19.4566 25.3598 19.6945 25.3598 19.952V19.9688Z" fill="white"/>
<path d="M32.3009 18.1887V17.0132H27.8501V22.8909H29.1361V20.6154H31.9252V19.4398H29.1361V18.1887H32.3009Z" fill="white"/>
</svg>
